<?xml version="1.0" encoding="UTF-8"?>
<!-- Generated by Pixelmator Pro 4.3 -->
<svg viewBox="0 0 1419 1183" xmlns="http://www.w3.org/2000/svg">
    <path id="Path-0" fill="#0b0000" fill-rule="evenodd" stroke="none" d="M 703.5 32.149902 C 714.5 32.070068 730.920044 32.469971 740 33.040039 C 749.079956 33.609863 762.349976 34.72998 769.5 35.550049 C 776.650024 36.359863 789.469971 38.179932 798 39.590088 C 806.530029 41.01001 820.25 43.689941 828.5 45.560059 C 836.75 47.419922 848.219971 50.25 854 51.849976 C 859.780029 53.439941 869.219971 56.219971 875 58.01001 C 880.780029 59.810059 892.469971 63.890015 901 67.070068 C 909.530029 70.26001 923.25 75.859985 931.5 79.51001 C 939.75 83.159912 953.199951 89.599976 961.400024 93.820068 C 969.589966 98.050049 984.109985 106.22998 993.660034 112 C 1003.199951 117.780029 1017.150024 126.780029 1024.640015 132 C 1032.140015 137.219971 1044.459961 146.449951 1052.02002 152.5 C 1059.589966 158.550049 1069.890015 167.099976 1074.910034 171.5 C 1079.930054 175.900024 1084.030029 179.719971 1084.030029 180 C 1084.030029 180.280029 1075.699951 183.98999 1047 196 L 1038.660034 188.75 C 1034.069946 184.76001 1025.630005 177.849976 1019.910034 173.380005 C 1014.180054 168.910034 1005.219971 162.180054 1000 158.420044 C 994.780029 154.660034 985.099976 148.160034 978.5 143.97998 C 971.900024 139.790039 960.199951 132.819946 952.5 128.47998 C 944.800049 124.150024 932.199951 117.599976 924.5 113.939941 C 916.800049 110.280029 903.75 104.550049 895.5 101.219971 C 887.25 97.890015 874.420044 93.140015 867 90.659912 C 859.579956 88.179932 846.969971 84.369995 839 82.189941 C 831.030029 80 817.75 76.830078 809.5 75.140015 C 801.25 73.449951 790.219971 71.409912 785 70.599976 C 779.780029 69.790039 768.969971 68.320068 761 67.330078 C 749.27002 65.880005 738.939941 65.530029 707 65.530029 C 675.390015 65.530029 664.599976 65.890015 653 67.300049 C 645.030029 68.27002 632.880005 69.969971 626 71.070068 C 619.130005 72.179932 606.300049 74.669922 597.5 76.609985 C 588.699951 78.550049 575.420044 81.890015 568 84.02002 C 560.579956 86.150024 548.420044 90 541 92.580078 C 533.579956 95.159912 520.75 100.080078 512.5 103.51001 C 504.25 106.939941 490.75 113.130005 482.5 117.25 C 474.25 121.380005 461.420044 128.25 454 132.51001 C 446.579956 136.780029 434.650024 144.180054 427.5 148.949951 C 420.349976 153.709961 409.329956 161.48999 403 166.219971 C 396.670044 170.959961 387.900024 177.819946 383.5 181.47998 C 379.099976 185.130005 369.47998 193.609985 362.109985 200.310059 C 354.75 207.01001 343.26001 218.349976 336.569946 225.5 C 329.890015 232.650024 319.939941 243.900024 314.459961 250.5 C 308.97998 257.099976 300.859985 267.449951 296.410034 273.5 C 291.959961 279.550049 284.709961 289.900024 280.290039 296.5 C 275.880005 303.099976 268.579956 314.800049 264.060059 322.5 C 259.550049 330.199951 251.640015 345.050049 246.48999 355.5 C 241.339966 365.949951 234.22998 381.699951 230.700012 390.5 C 227.159973 399.300049 222.599976 411.449951 220.559998 417.5 C 218.52002 423.550049 215.349976 433.449951 213.51001 439.5 C 211.679993 445.550049 208.590027 457.030029 206.659973 465 C 204.719971 472.969971 202.030029 485.349976 200.669983 492.5 C 199.309998 499.650024 197.590027 509.890015 195.5 525.02002 L 152 525 L 152.47998 521.75 C 152.73999 519.959961 153.650024 513.780029 154.5 508 C 155.349976 502.219971 157.210022 491.650024 158.619995 484.5 C 160.030029 477.349976 162.25 467 163.539978 461.5 C 164.830017 456 167.929993 444.410034 170.440002 435.75 C 172.950012 427.089966 177.52002 412.910034 180.599976 404.25 C 183.690002 395.589966 189.570007 380.630005 193.669983 371 C 197.780029 361.380005 205.090027 345.849976 209.919983 336.5 C 214.73999 327.150024 222.309998 313.420044 226.73999 306 C 231.159973 298.579956 238.560059 286.880005 243.170044 280 C 247.790039 273.130005 255.449951 262.329956 260.199951 256 C 264.939941 249.670044 273.670044 238.650024 279.589966 231.5 C 285.51001 224.349976 300.959961 207.910034 313.930054 194.959961 C 328.02002 180.890015 343.680054 166.410034 352.869995 158.959961 C 361.319946 152.109985 374.369995 142.069946 381.869995 136.660034 C 389.369995 131.25 400.670044 123.550049 407 119.540039 C 413.329956 115.530029 424.579956 108.77002 432 104.51001 C 439.420044 100.23999 450.449951 94.27002 456.5 91.23999 C 462.550049 88.209961 474.030029 82.840088 482 79.300049 C 489.969971 75.76001 503.469971 70.26001 512 67.080078 C 520.530029 63.900024 532.670044 59.689941 539 57.72998 C 545.329956 55.77002 555.449951 52.820068 561.5 51.169922 C 567.550049 49.52002 578.800049 46.780029 586.5 45.080078 C 594.199951 43.379883 607.030029 40.899902 615 39.560059 C 622.969971 38.22998 635.800049 36.419922 643.5 35.540039 C 651.199951 34.659912 663.349976 33.570068 670.5 33.120117 C 677.650024 32.659912 692.5 32.22998 703.5 32.149902 Z M 222.440002 117 C 222.97998 117 232.530029 126.109985 263.920044 157.5 L 249.810059 172.5 C 242.050049 180.75 231.109985 192.900024 225.5 199.5 C 219.880005 206.099976 210.359985 218.030029 204.330017 226 C 198.309998 233.969971 189.76001 245.900024 185.340027 252.5 C 180.909973 259.099976 173.099976 271.469971 167.969971 280 C 162.849976 288.530029 154.48999 303.599976 149.390015 313.5 C 144.299988 323.400024 137.340027 337.800049 133.940002 345.5 C 130.530029 353.199951 125.72998 364.670044 123.26001 371 C 120.789978 377.329956 116.549988 389.030029 113.830017 397 C 111.119995 404.969971 106.659973 419.599976 103.929993 429.5 C 101.190002 439.400024 97.359985 454.920044 95.409973 464 C 93.460022 473.079956 90.780029 487.469971 89.450012 496 C 88.130005 504.530029 86.380005 517.349976 85.559998 524.5 C 84.73999 531.650024 83.719971 541.699951 82.5 556.150024 L 158.5 555.719971 C 223.080017 555.359985 235.699951 555.050049 242.5 553.689941 C 246.900024 552.800049 254.550049 550.910034 259.5 549.47998 C 264.449951 548.050049 272.780029 544.849976 278 542.380005 C 283.219971 539.910034 291.780029 535.02002 297 531.52002 C 302.219971 528.02002 310.329956 521.589966 315 517.22998 C 319.670044 512.880005 326.030029 506.209961 329.130005 502.410034 C 332.219971 498.609985 336.869995 492.349976 339.449951 488.5 C 342.030029 484.650024 346.119995 477.449951 348.52002 472.5 C 350.930054 467.550049 354.089966 459.900024 355.550049 455.5 C 357.02002 451.099976 359.140015 443.219971 360.280029 438 C 362.27002 428.890015 362.369995 425 362.72998 343 C 362.949951 291.920044 363.469971 257.099976 364.030029 256.5 C 364.630005 255.859985 377.959961 268.469971 438.140015 328.5 L 437.719971 379.5 C 437.369995 421.76001 437 432.300049 435.569946 441 C 434.609985 446.780029 432.579956 456.449951 431.060059 462.5 C 429.540039 468.550049 426.819946 477.550049 425.040039 482.5 C 423.25 487.449951 419.02002 497.130005 415.650024 504 C 412.280029 510.880005 405.630005 522.349976 400.869995 529.5 C 396.109985 536.650024 388.640015 546.780029 384.26001 552 C 379.880005 557.219971 372.75 564.819946 368.400024 568.880005 C 364.060059 572.939941 356.959961 579.02002 352.630005 582.380005 C 348.300049 585.75 343.579956 589.51001 342.130005 590.75 C 339.930054 592.640015 339.75 593.150024 341 593.900024 C 341.829956 594.390015 346.780029 598.069946 352 602.079956 C 357.219971 606.089966 366.469971 614.349976 372.550049 620.430054 C 378.630005 626.52002 386.550049 635.329956 390.160034 640 C 393.76001 644.670044 399.280029 652.329956 402.410034 657 C 405.540039 661.670044 410.949951 671.130005 414.439941 678 C 417.920044 684.880005 422.569946 695.449951 424.76001 701.5 C 426.959961 707.550049 429.930054 717.449951 431.369995 723.5 C 432.800049 729.550049 434.719971 739 435.640015 744.5 C 436.98999 752.599976 437.390015 764.189941 438.22998 856.5 L 401.719971 892.5 C 381.640015 912.300049 364.829956 928.5 364.359985 928.5 C 363.890015 928.5 363.25 890.030029 362.949951 843 C 362.469971 766.810059 362.219971 756.52002 360.640015 748.5 C 359.670044 743.550049 357.310059 734.780029 355.380005 729 C 353.459961 723.219971 349.630005 714.219971 346.880005 709 C 344.119995 703.780029 339.310059 695.910034 336.180054 691.530029 C 333.060059 687.150024 325.540039 678.599976 319.47998 672.530029 C 313.420044 666.459961 304.420044 658.640015 299.47998 655.150024 C 294.540039 651.660034 285.550049 646.390015 279.5 643.439941 C 273.449951 640.48999 263.780029 636.75 258 635.140015 C 252.219971 633.530029 243.670044 631.599976 239 630.849976 C 232.409973 629.800049 213.97998 629.5 83.5 629.5 L 83.73999 638 C 83.880005 642.670044 84.690002 652.579956 85.549988 660 C 86.409973 667.420044 88.409973 681.599976 90 691.5 C 91.590027 701.400024 94.52002 716.699951 96.51001 725.5 C 98.5 734.300049 101.700012 747.130005 103.609985 754 C 105.530029 760.880005 109.150024 772.800049 111.659973 780.5 C 114.159973 788.199951 118.219971 799.900024 120.669983 806.5 C 123.130005 813.099976 127.859985 824.800049 131.179993 832.5 C 134.51001 840.199951 141.390015 854.829956 146.469971 865 C 151.549988 875.170044 159.659973 890.25 164.5 898.5 C 169.330017 906.75 176.98999 919.130005 181.52002 926 C 186.039978 932.880005 193.690002 943.900024 198.51001 950.5 C 203.330017 957.099976 211.599976 967.880005 216.890015 974.459961 C 222.169983 981.050049 230.72998 991.170044 235.900024 996.959961 C 241.069946 1002.76001 250.01001 1012.219971 255.75 1018 C 261.5 1023.780029 266.040039 1029.02002 265.849976 1029.650024 C 265.660034 1030.280029 256.569946 1039.949951 225.799988 1071.5 L 219.320007 1065 C 215.76001 1061.420044 207.070007 1052.199951 200.030029 1044.5 C 192.97998 1036.800049 183.059998 1025.550049 177.98999 1019.5 C 172.909973 1013.449951 163.039978 1000.849976 156.039978 991.5 C 149.039978 982.150024 139.719971 969.099976 135.330017 962.5 C 130.929993 955.900024 123.280029 943.75 118.309998 935.5 C 113.349976 927.25 105.919983 914.199951 101.789978 906.5 C 97.669983 898.800049 90.799988 885.079956 86.530029 876 C 82.26001 866.920044 75.950012 852.530029 72.51001 844 C 69.059998 835.469971 64.119995 822.650024 61.530029 815.5 C 58.940002 808.349976 54.590027 795.079956 51.869995 786 C 49.140015 776.920044 45.390015 763.420044 43.52002 756 C 41.650024 748.579956 38.780029 735.969971 37.140015 728 C 35.48999 720.030029 33 706.530029 31.590027 698 C 30.190002 689.469971 28.150024 673.719971 27.059998 663 C 25.969971 652.280029 24.549988 633.599976 23.919983 621.5 C 23.22998 608.420044 23.02002 590.579956 23.419983 577.5 C 23.780029 565.400024 24.52002 549.880005 25.049988 543 C 25.580017 536.130005 26.940002 522.400024 28.070007 512.5 C 29.210022 502.599976 31.690002 485.719971 33.590027 475 C 35.48999 464.280029 38.869995 447.849976 41.090027 438.5 C 43.320007 429.150024 47.169983 414.530029 49.640015 406 C 52.119995 397.469971 56.340027 384.199951 59.01001 376.5 C 61.679993 368.800049 65.280029 358.670044 67.01001 354 C 68.73999 349.329956 72.919983 338.969971 76.280029 331 C 79.650024 323.030029 86.73999 307.719971 92.039978 297 C 97.340027 286.280029 105.400024 270.969971 109.960022 263 C 114.51001 255.030029 122.109985 242.420044 126.830017 235 C 131.549988 227.579956 139.200012 216.099976 143.830017 209.5 C 148.460022 202.900024 156.400024 192.099976 161.469971 185.5 C 166.549988 178.900024 174.849976 168.550049 179.929993 162.5 C 185.01001 156.449951 196.429993 143.73999 205.320007 134.25 C 214.200012 124.76001 221.909973 117 222.440002 117 Z M 1169.5 194.160034 C 1176.099976 194.069946 1186.449951 194.47998 1192.5 195.079956 C 1198.550049 195.670044 1209.349976 197.22998 1216.5 198.530029 C 1223.650024 199.839966 1234.219971 202.550049 1240 204.550049 C 1245.780029 206.550049 1253.199951 209.319946 1256.5 210.709961 C 1259.800049 212.089966 1267.449951 215.689941 1273.5 218.709961 C 1279.550049 221.72998 1288.780029 227 1294 230.430054 C 1299.219971 233.849976 1306.879883 239.369995 1311 242.699951 C 1315.129883 246.02002 1322.5 252.72998 1327.379883 257.619995 C 1332.27002 262.5 1338.98999 269.880005 1342.310059 274 C 1345.639893 278.130005 1351.889893 286.900024 1356.209961 293.5 C 1360.530029 300.099976 1366.939941 311.349976 1370.439941 318.5 C 1373.949951 325.650024 1378.379883 336 1380.290039 341.5 C 1382.189941 347 1384.699951 355.329956 1385.850098 360 C 1387.01001 364.670044 1388.659912 372.550049 1389.52002 377.5 C 1390.379883 382.449951 1391.449951 392.800049 1391.889893 400.5 C 1392.340088 408.199951 1392.350098 420.579956 1391.929932 428 C 1391.5 435.420044 1390.159912 447.130005 1388.959961 454 C 1387.76001 460.880005 1385.25 471.560059 1383.389893 477.75 C 1381.52002 483.939941 1377.719971 494.290039 1374.939941 500.75 C 1372.159912 507.209961 1367.580078 516.550049 1364.76001 521.5 C 1361.949951 526.449951 1357.149902 534.329956 1354.100098 539 C 1351.040039 543.670044 1345.110107 551.780029 1340.899902 557 C 1336.699951 562.219971 1328.810059 570.780029 1323.360107 576 C 1317.909912 581.219971 1309.860107 588.189941 1305.47998 591.47998 C 1301.090088 594.780029 1293.679932 599.880005 1289 602.829956 C 1284.320068 605.780029 1274.199951 611.27002 1266.5 615.02002 C 1258.800049 618.780029 1248.449951 623.27002 1243.5 624.98999 C 1238.550049 626.719971 1230 629.22998 1224.5 630.579956 C 1219 631.920044 1209.099976 633.660034 1202.5 634.449951 C 1195.900024 635.23999 1186.449951 636.02002 1172.5 636.5 L 1171.959961 561.5 L 1179.72998 560.719971 C 1184 560.280029 1192.670044 558.880005 1199 557.599976 C 1205.329956 556.319946 1215.219971 553.410034 1221 551.150024 C 1226.780029 548.880005 1235.550049 544.73999 1240.5 541.939941 C 1245.449951 539.150024 1253.099976 534.310059 1257.5 531.189941 C 1261.899902 528.060059 1270.679932 520.329956 1277.01001 514 C 1283.629883 507.400024 1291.129883 498.670044 1294.639893 493.5 C 1298 488.550049 1302.320068 481.349976 1304.25 477.5 C 1306.169922 473.650024 1308.959961 467.130005 1310.449951 463 C 1311.929932 458.880005 1314.01001 451.900024 1315.060059 447.5 C 1316.110107 443.099976 1317.429932 433.98999 1317.97998 427.25 C 1318.679932 418.910034 1318.669922 410.930054 1317.969971 402.25 C 1317.399902 395.23999 1315.870117 385 1314.550049 379.5 C 1313.23999 374 1310.97998 366.349976 1309.530029 362.5 C 1308.080078 358.650024 1304.639893 351.219971 1301.879883 346 C 1299.120117 340.780029 1294.310059 332.920044 1291.179932 328.540039 C 1288.060059 324.170044 1280.97998 316.069946 1275.459961 310.540039 C 1269.929932 305.02002 1261.830078 297.939941 1257.459961 294.819946 C 1253.079956 291.689941 1245.219971 286.880005 1240 284.119995 C 1234.780029 281.369995 1225.780029 277.540039 1220 275.609985 C 1214.219971 273.689941 1205.219971 271.329956 1200 270.369995 C 1193.170044 269.109985 1185.290039 268.609985 1172 268.609985 C 1158.829956 268.599976 1150.839966 269.089966 1144.25 270.300049 C 1139.160034 271.22998 1130.160034 273.560059 1124.25 275.469971 C 1118.339966 277.380005 1109.449951 281.030029 1104.5 283.579956 C 1099.550049 286.130005 1092.130005 290.530029 1088 293.349976 C 1083.880005 296.180054 1074.630005 304.339966 1067.449951 311.48999 C 1059.359985 319.560059 1052.099976 327.920044 1048.329956 333.5 C 1044.98999 338.449951 1040.569946 345.880005 1038.5 350 C 1036.439941 354.130005 1033.26001 362 1031.439941 367.5 C 1029.630005 373 1027.329956 380.880005 1026.349976 385 C 1024.660034 392.089966 1024.550049 407.209961 1024.280029 661.75 C 1024.109985 821.75 1023.630005 930.900024 1023.099976 930.75 C 1022.599976 930.609985 1005.949951 914.410034 950 859 L 950 632.75 C 950 487.640015 950.369995 402.560059 951.02002 395.5 C 951.569946 389.449951 952.719971 380.670044 953.560059 376 C 954.400024 371.329956 956.910034 361.199951 959.140015 353.5 C 961.369995 345.800049 964.76001 335.670044 966.689941 331 C 968.609985 326.329956 972.380005 318.219971 975.060059 313 C 977.73999 307.780029 982.920044 299 986.560059 293.5 C 990.209961 288 996.47998 279.449951 1000.48999 274.5 C 1004.51001 269.550049 1012.22998 261.209961 1017.650024 255.959961 C 1023.069946 250.709961 1031.780029 243.130005 1037 239.099976 C 1042.219971 235.079956 1050.550049 229.280029 1055.5 226.219971 C 1060.449951 223.160034 1069.449951 218.290039 1075.5 215.410034 C 1081.550049 212.530029 1091.670044 208.390015 1098 206.219971 C 1104.329956 204.050049 1113.550049 201.329956 1118.5 200.180054 C 1123.449951 199.040039 1132.449951 197.410034 1138.5 196.569946 C 1144.550049 195.719971 1151.300049 194.880005 1153.5 194.689941 C 1155.699951 194.48999 1162.900024 194.26001 1169.5 194.160034 Z M 699.5 252.589966 C 708.300049 252.839966 720.449951 253.76001 726.5 254.630005 C 732.550049 255.51001 742.449951 257.469971 748.5 258.98999 C 754.550049 260.51001 764 263.439941 769.5 265.51001 C 775 267.569946 784.670044 271.800049 791 274.920044 C 797.329956 278.030029 806.550049 283.209961 811.5 286.430054 C 816.449951 289.640015 823.199951 294.339966 826.5 296.869995 C 829.800049 299.400024 836.530029 305.079956 841.449951 309.47998 C 846.380005 313.890015 854.640015 322.449951 859.810059 328.5 C 864.97998 334.550049 872.680054 344.670044 876.910034 351 C 881.130005 357.329956 887.459961 368.130005 890.949951 375 C 894.449951 381.880005 899.050049 392.219971 901.189941 398 C 903.319946 403.780029 906.380005 413.900024 908 420.5 C 909.609985 427.099976 911.619995 437.790039 912.459961 444.25 C 913.800049 454.449951 914 480.689941 914.01001 643.25 C 914.02002 746.23999 913.800049 830.719971 913.530029 831 C 913.25 831.280029 896.709961 815.050049 840.5 758.400024 L 840.5 635.5 L 547 635 L 546.97998 758.5 L 510.73999 794.76001 C 490.810059 814.699951 474.160034 831.01001 473.75 831.01001 C 473.339966 831 473.130005 744.709961 473.280029 639.25 C 473.540039 461.660034 473.689941 446.800049 475.310059 438 C 476.27002 432.780029 478.420044 423.329956 480.099976 417 C 481.77002 410.670044 485.349976 399.880005 488.050049 393 C 490.76001 386.130005 495.709961 375.550049 499.069946 369.5 C 502.420044 363.449951 508.02002 354.219971 511.51001 349 C 515 343.780029 520.75 335.900024 524.290039 331.5 C 527.829956 327.099976 536.109985 318.329956 542.670044 312 C 549.23999 305.670044 560.209961 296.52002 567.060059 291.660034 C 574.910034 286.079956 585.030029 280.109985 594.5 275.48999 C 602.75 271.459961 614.900024 266.290039 621.5 264.02002 C 628.099976 261.73999 640.030029 258.560059 648 256.949951 C 655.969971 255.339966 667.219971 253.599976 673 253.079956 C 678.780029 252.560059 690.699951 252.339966 699.5 252.589966 Z M 667.329956 328.790039 C 661.920044 329.609985 654.800049 331.060059 651.5 332.02002 C 648.199951 332.97998 642.01001 335.170044 637.75 336.880005 C 633.48999 338.599976 626.73999 341.839966 622.75 344.089966 C 618.76001 346.339966 612.579956 350.26001 609 352.800049 C 605.430054 355.339966 598.060059 361.719971 592.630005 366.959961 C 587.199951 372.209961 579.97998 380.099976 576.589966 384.5 C 573.199951 388.900024 569.27002 394.300049 567.859985 396.5 C 566.449951 398.699951 563.930054 403.199951 562.26001 406.5 C 560.589966 409.800049 558.030029 415.420044 556.569946 419 C 555.109985 422.579956 552.839966 429.780029 551.530029 435 C 550.209961 440.219971 548.650024 447.98999 548.069946 452.25 C 547.430054 456.900024 547 480.209961 547 510.5 L 547 561 L 840.5 560.5 C 840.369995 462.119995 840.209961 457.650024 838.23999 446.5 C 837.069946 439.900024 834.47998 429.780029 832.47998 424 C 830.47998 418.219971 827.02002 410.130005 824.780029 406 C 822.540039 401.880005 818.900024 395.800049 816.689941 392.5 C 814.48999 389.199951 809.48999 382.719971 805.589966 378.099976 C 801.689941 373.48999 794.530029 366.290039 789.680054 362.099976 C 784.829956 357.920044 777.630005 352.329956 773.680054 349.680054 C 769.72998 347.030029 762.449951 342.890015 757.5 340.47998 C 752.550049 338.069946 745.130005 334.98999 741 333.630005 C 736.880005 332.27002 730.01001 330.439941 725.75 329.579956 C 721.48999 328.709961 713.839966 327.560059 708.75 327.02002 C 703.660034 326.47998 696.130005 326.099976 692 326.189941 C 687.880005 326.27002 682.849976 326.550049 680.829956 326.819946 C 678.810059 327.079956 672.73999 327.969971 667.329956 328.790039 Z M 1181 295.089966 C 1181.920044 295.050049 1186.060059 301.130005 1191.660034 310.76001 C 1196.699951 319.420044 1205.26001 335.5 1210.689941 346.5 C 1216.119995 357.5 1223.800049 374.599976 1227.76001 384.5 C 1231.709961 394.400024 1237.170044 409.25 1239.890015 417.5 C 1242.599976 425.75 1246.719971 439.469971 1249.040039 448 C 1251.349976 456.530029 1254.75 470.920044 1256.579956 480 C 1258.410034 489.079956 1259.77002 496.719971 1259.600098 497 C 1259.419922 497.280029 1252.689941 501.209961 1244.640015 505.75 C 1236.589966 510.290039 1229.780029 514 1229.5 514 C 1229.219971 514 1228.73999 511.859985 1228.430054 509.25 C 1228.109985 506.640015 1226.73999 498.880005 1225.380005 492 C 1224.02002 485.130005 1221.329956 473.420044 1219.390015 466 C 1217.459961 458.579956 1213.599976 445.530029 1210.819946 437 C 1208.040039 428.469971 1203.380005 415.420044 1200.47998 408 C 1197.579956 400.579956 1192.880005 389.329956 1190.050049 383 C 1187.209961 376.670044 1181.709961 365.420044 1177.829956 358 C 1173.949951 350.579956 1167.380005 338.880005 1163.22998 332 C 1159.079956 325.130005 1153.280029 315.900024 1150.339966 311.5 C 1146.819946 306.23999 1145.420044 303.349976 1146.23999 303.069946 C 1146.939941 302.829956 1154.699951 300.949951 1163.5 298.900024 C 1172.300049 296.849976 1180.180054 295.140015 1181 295.089966 Z M 1263.100098 649.099976 C 1264.429932 649.02002 1264.629883 649.900024 1264.280029 654.25 C 1264.050049 657.140015 1262.97998 665.579956 1261.919922 673 C 1260.860107 680.420044 1258.839966 692.349976 1257.430054 699.5 C 1256.030029 706.650024 1253.51001 718.130005 1251.839966 725 C 1250.170044 731.880005 1246.640015 744.699951 1243.98999 753.5 C 1241.339966 762.300049 1236.829956 775.800049 1233.969971 783.5 C 1231.099976 791.199951 1226.119995 803.689941 1222.880005 811.25 C 1219.650024 818.810059 1213.680054 831.640015 1209.619995 839.75 C 1205.569946 847.859985 1198.76001 860.579956 1194.48999 868 C 1190.219971 875.420044 1183.819946 886 1180.26001 891.5 C 1176.709961 897 1169.22998 907.939941 1163.650024 915.819946 C 1158.069946 923.689941 1149.109985 935.72998 1143.75 942.569946 C 1138.390015 949.410034 1129.329956 960.290039 1123.609985 966.75 C 1117.900024 973.209961 1105.189941 986.400024 1095.359985 996.060059 C 1085.540039 1005.719971 1071.650024 1018.47998 1064.5 1024.420044 C 1057.349976 1030.349976 1046.550049 1038.930054 1040.5 1043.469971 C 1034.449951 1048.02002 1024.550049 1055.109985 1018.5 1059.23999 C 1012.449951 1063.369995 1000.530029 1070.930054 992 1076.050049 C 983.469971 1081.160034 970.199951 1088.619995 962.5 1092.630005 C 954.800049 1096.630005 941.300049 1103.109985 932.5 1107.02002 C 923.699951 1110.939941 909.530029 1116.75 901 1119.930054 C 892.469971 1123.109985 880.780029 1127.189941 875 1128.98999 C 869.219971 1130.780029 859.780029 1133.560059 854 1135.150024 C 848.219971 1136.75 836.75 1139.579956 828.5 1141.439941 C 820.25 1143.310059 806.530029 1145.98999 798 1147.409912 C 789.469971 1148.820068 776.650024 1150.639893 769.5 1151.449951 C 762.349976 1152.27002 749.079956 1153.389893 740 1153.959961 C 730.930054 1154.530029 715.849976 1154.98999 706.5 1154.98999 C 697.150024 1154.98999 682.079956 1154.530029 673 1153.959961 C 663.930054 1153.389893 650.650024 1152.27002 643.5 1151.449951 C 636.349976 1150.639893 623.530029 1148.820068 615 1147.409912 C 606.469971 1145.98999 593.430054 1143.47998 586 1141.830078 C 578.579956 1140.180054 566.199951 1137.089966 558.5 1134.97998 C 550.800049 1132.869995 537.75 1128.890015 529.5 1126.140015 C 521.25 1123.380005 508.199951 1118.599976 500.5 1115.51001 C 492.800049 1112.420044 479.079956 1106.430054 470 1102.199951 C 460.930054 1097.969971 446.969971 1090.869995 439 1086.430054 C 431.030029 1081.98999 418.650024 1074.72998 411.5 1070.290039 C 404.349976 1065.849976 391.670044 1057.329956 383.329956 1051.359985 C 374.98999 1045.390015 361.27002 1034.890015 352.829956 1028.040039 C 343.800049 1020.699951 327.810059 1005.900024 313.930054 992.040039 C 300.959961 979.089966 285.51001 962.650024 279.589966 955.5 C 273.670044 948.349976 264.939941 937.329956 260.199951 931 C 255.449951 924.670044 247.790039 913.880005 243.170044 907 C 238.560059 900.130005 231.150024 888.420044 226.710022 881 C 222.27002 873.579956 214.289978 858.949951 208.98999 848.5 C 203.679993 838.050049 196.299988 822.300049 192.590027 813.5 C 188.869995 804.699951 183.400024 790.640015 180.419983 782.25 C 177.440002 773.859985 172.950012 759.910034 170.440002 751.25 C 167.929993 742.589966 164.969971 731.670044 163.869995 727 C 162.77002 722.329956 160.76001 713.099976 159.409973 706.5 C 158.049988 699.900024 156.049988 688.98999 154.969971 682.25 C 153.890015 675.51001 153 668.880005 153 665 L 195.5 664.969971 L 197.320007 676.22998 C 198.330017 682.430054 200.469971 694.030029 202.090027 702 C 203.700012 709.969971 206.840027 723.469971 209.059998 732 C 211.280029 740.530029 215.960022 756.050049 219.460022 766.5 C 222.950012 776.949951 228.820007 792.699951 232.5 801.5 C 236.180054 810.300049 243.130005 825.380005 247.949951 835 C 252.780029 844.630005 259.329956 857 262.5 862.5 C 265.680054 868 271.560059 877.670044 275.569946 884 C 279.569946 890.329956 287.439941 901.800049 293.050049 909.5 C 298.670044 917.199951 308.030029 929.349976 313.869995 936.5 C 319.709961 943.650024 334.390015 959.449951 346.48999 971.609985 C 358.599976 983.77002 374.130005 998.369995 381 1004.050049 C 387.880005 1009.72998 398.449951 1018.060059 404.5 1022.560059 C 410.550049 1027.060059 422.030029 1035.01001 430 1040.22998 C 437.97998 1045.439941 449.22998 1052.420044 455 1055.72998 C 460.780029 1059.040039 472.930054 1065.469971 482 1070 C 491.079956 1074.540039 505.47998 1081.150024 514 1084.699951 C 522.530029 1088.26001 538.050049 1094 548.5 1097.47998 C 558.949951 1100.959961 574.930054 1105.630005 584 1107.880005 C 593.079956 1110.119995 607.930054 1113.290039 617 1114.920044 C 626.079956 1116.560059 639.349976 1118.589966 646.5 1119.430054 C 653.650024 1120.280029 667.380005 1121.48999 677 1122.119995 C 687.5 1122.800049 704.300049 1123.02002 719 1122.650024 C 732.47998 1122.319946 750.030029 1121.349976 758 1120.51001 C 765.97998 1119.670044 780.599976 1117.640015 790.5 1116 C 800.400024 1114.359985 815.930054 1111.199951 825 1108.97998 C 834.079956 1106.75 846.680054 1103.329956 853 1101.369995 C 859.329956 1099.420044 868.780029 1096.319946 874 1094.48999 C 879.22998 1092.670044 886.430054 1090.050049 890 1088.680054 C 893.579956 1087.319946 902.349976 1083.650024 909.5 1080.540039 C 916.650024 1077.420044 929.699951 1071.150024 938.5 1066.589966 C 947.300049 1062.040039 959.22998 1055.469971 965 1052.01001 C 970.780029 1048.540039 980.900024 1042.099976 987.5 1037.709961 C 994.099976 1033.310059 1004.680054 1025.849976 1011 1021.109985 C 1017.329956 1016.380005 1028.349976 1007.569946 1035.5 1001.550049 C 1042.650024 995.52002 1056.410034 982.689941 1066.069946 973.040039 C 1075.73999 963.390015 1089.01001 949.26001 1095.569946 941.640015 C 1102.130005 934.01001 1111.02002 923.660034 1115.329956 918.640015 C 1119.630005 913.609985 1127.569946 903.650024 1132.959961 896.5 C 1138.349976 889.349976 1146.359985 878.099976 1150.75 871.5 C 1155.150024 864.900024 1161.560059 854.780029 1165 849 C 1168.439941 843.219971 1174.540039 832.199951 1178.560059 824.5 C 1182.579956 816.800049 1188.76001 803.969971 1192.290039 796 C 1195.819946 788.030029 1201.209961 774.75 1204.27002 766.5 C 1207.319946 758.25 1211.650024 745.420044 1213.890015 738 C 1216.119995 730.579956 1219.339966 718.650024 1221.040039 711.5 C 1222.73999 704.349976 1224.959961 694.219971 1225.97998 689 C 1226.98999 683.780029 1228.569946 674.780029 1231.170044 658.5 L 1246.339966 653.849976 C 1254.680054 651.290039 1262.219971 649.150024 1263.100098 649.099976 Z"/>
</svg>
